<svg width="850" height="124" viewBox="0 0 850 124" fill="none" xmlns="http://www.w3.org/2000/svg">
<g clip-path="url(#clip0_54_13438)">
<path d="M187.596 34.9846C184.463 34.95 181.36 35.6164 178.517 36.935C175.855 38.1552 173.523 39.9966 171.719 42.3042V35.7453H158.407V88.4241H171.719V59.3271C171.719 55.1433 172.781 51.9265 174.904 49.6768C177.027 47.4271 179.926 46.3008 183.603 46.2979C187.215 46.2979 190.068 47.4242 192.161 49.6768C194.255 51.9294 195.301 55.1462 195.301 59.3271V88.4241H208.614V57.5182C208.614 50.4213 206.679 44.8915 202.811 40.9287C198.942 36.966 193.871 34.9846 187.596 34.9846Z" fill="#265DF5"/>
<path d="M257.524 43.2551C255.642 40.7548 253.224 38.7084 250.447 37.2667C247.498 35.6834 244.06 34.8903 240.133 34.8874C235.828 34.8333 231.595 35.9871 227.914 38.2176C224.194 40.5135 221.195 43.8084 219.258 47.7265C217.135 51.8543 216.073 56.5718 216.073 61.879C216.073 67.2718 217.135 72.0424 219.258 76.1909C221.2 80.143 224.195 83.4823 227.914 85.8413C231.543 88.1192 235.751 89.3069 240.036 89.2643C243.655 89.3397 247.234 88.5061 250.447 86.8405C253.263 85.3921 255.69 83.288 257.524 80.7064V88.411H270.933V35.7453H257.524V43.2551ZM255.622 70.406C254.438 72.6195 252.66 74.4579 250.487 75.7133C248.379 76.9357 245.984 77.5752 243.547 77.5663C241.148 77.5706 238.795 76.9125 236.746 75.6646C234.571 74.3406 232.796 72.4513 231.61 70.1981C230.267 67.6334 229.597 64.7692 229.664 61.8746C229.664 58.708 230.314 55.9674 231.61 53.6528C232.493 52.0561 233.685 50.6515 235.117 49.5211C236.548 48.3909 238.192 47.5577 239.95 47.0705C241.707 46.5832 243.545 46.4516 245.354 46.6835C247.164 46.9154 248.909 47.5061 250.487 48.4208C252.66 49.6761 254.438 51.5145 255.622 53.728C256.889 56.0425 257.524 58.8156 257.524 62.0471C257.524 65.2786 256.889 68.0649 255.622 70.406Z" fill="#265DF5"/>
<path d="M316.169 64.7672C316.169 68.951 315.122 72.1678 313.029 74.4175C310.935 76.6672 308.051 77.792 304.378 77.792C300.763 77.792 297.91 76.6672 295.82 74.4175C293.729 72.1678 292.683 68.951 292.679 64.7672V35.7455H279.367V66.6689C279.367 71.3628 280.271 75.4037 282.079 78.7915C283.748 82.0428 286.347 84.7242 289.544 86.4955C292.906 88.2857 296.669 89.1857 300.477 89.1095C303.58 89.139 306.651 88.4726 309.464 87.1595C312.11 85.9521 314.414 84.1054 316.169 81.7857V88.4201H329.574V35.7632H316.169V64.7672Z" fill="#265DF5"/>
<path d="M386.312 35.7852H369.006L351.32 58.133V18.0988H338.008V88.4635H351.32V66.0231L369.196 88.4635H386.503L363.111 62.2196L386.312 35.7852Z" fill="#265DF5"/>
<path d="M405.968 43.9584V35.7454H392.647V88.4414H405.959V62.1976C405.959 57.3149 407.021 53.8918 409.144 51.9281C411.267 49.9645 414.421 48.9811 418.608 48.9781H422.146V35.0024C418.898 34.9253 415.687 35.7141 412.844 37.2881C410.001 38.862 407.627 41.1642 405.968 43.9584Z" fill="#265DF5"/>
<path d="M441.672 35.7455H428.359V88.4463H441.672V35.7455Z" fill="#265DF5"/>
<path d="M435.015 29.4607C439.412 29.4607 442.976 25.8965 442.976 21.4998C442.976 17.1032 439.412 13.539 435.015 13.539C430.619 13.539 427.055 17.1032 427.055 21.4998C427.055 25.8965 430.619 29.4607 435.015 29.4607Z" fill="#265DF5"/>
<path d="M61.4754 123.567C95.427 123.567 122.951 96.0433 122.951 62.0916C122.951 28.1397 95.427 0.616211 61.4754 0.616211C27.5234 0.616211 0 28.1397 0 62.0916C0 96.0433 27.5234 123.567 61.4754 123.567Z" fill="#265DF5"/>
<path d="M79.9618 84.8635L79.8247 91.0955L79.4266 109.087V109.782C49.0251 83.4709 43.8461 77.0533 42.9483 75.1029L42.9174 75.0366C42.8092 74.6693 42.7836 74.2827 42.8421 73.9044C42.8636 73.7642 42.8931 73.6254 42.9306 73.4887C42.9615 73.3781 42.9925 73.2719 43.0323 73.1569C43.36 72.2965 43.8244 71.4944 44.4078 70.7819C44.8256 70.2421 45.2808 69.7323 45.77 69.2561C46.816 68.2217 47.9365 67.2653 49.1224 66.3946C49.7106 65.9524 50.3253 65.5101 50.9755 65.0678C52.2315 64.2098 53.5892 63.3519 54.9957 62.516C65.9197 72.7059 79.7849 84.7004 79.9618 84.8635Z" fill="url(#paint0_linear_54_13438)"/>
<path d="M80.364 25.7634L80.2269 32.0171L80.1561 35.1129L80.0146 41.3357L79.9439 44.4581L79.8067 50.6852C79.59 50.7738 65.7249 56.1517 55.0397 62.5071C53.6332 63.343 52.2799 64.2011 51.0195 65.059C50.3737 65.5013 49.7545 65.9436 49.1663 66.3858C47.9823 67.2588 46.862 68.2151 45.8139 69.2473C45.3259 69.7245 44.8708 70.2343 44.4518 70.7731C43.4876 72.0026 42.9082 73.21 42.8242 74.3466L42.9392 69.15V69.1147L42.9613 68.3097V68.0178L43.0541 64.7406L43.2311 58.2437L43.3151 55.0682L43.492 48.6287C45.6901 39.6152 76.733 27.192 80.364 25.7634Z" fill="white"/>
<path d="M51.7457 32.6539C56.7848 32.6539 60.8697 28.569 60.8697 23.5299C60.8697 18.4909 56.7848 14.4059 51.7457 14.4059C46.7067 14.4059 42.6217 18.4909 42.6217 23.5299C42.6217 28.569 46.7067 32.6539 51.7457 32.6539Z" fill="white"/>
<path d="M828.812 89.8267C824.582 89.8267 820.771 89.0775 817.38 87.5791C814.058 86.0152 811.42 83.9308 809.465 81.3248C807.511 78.6537 806.468 75.6895 806.338 72.4321H817.87C818.065 74.7123 819.139 76.6341 821.09 78.1977C823.115 79.6961 825.623 80.4453 828.615 80.4453C831.746 80.4453 834.156 79.859 835.852 78.6863C837.607 77.4485 838.492 75.885 838.492 73.9956C838.492 71.976 837.508 70.4776 835.557 69.5004C833.664 68.5232 830.639 67.4482 826.467 66.2755C822.426 65.168 819.139 64.0931 816.599 63.0507C814.058 62.0083 811.843 60.4122 809.954 58.2623C808.13 56.1124 807.217 53.2785 807.217 49.7605C807.217 46.8939 808.065 44.288 809.758 41.9427C811.453 39.5322 813.862 37.6428 816.99 36.2747C820.18 34.9066 823.828 34.2226 827.934 34.2226C834.057 34.2226 838.975 35.7861 842.689 38.9132C846.467 41.9752 848.492 46.1773 848.746 51.5195H837.607C837.41 49.109 836.434 47.1871 834.68 45.7538C832.918 44.3205 830.541 43.604 827.541 43.604C824.615 43.604 822.361 44.1577 820.803 45.2652C819.238 46.3728 818.456 47.8386 818.456 49.6628C818.456 51.096 818.977 52.3013 820.016 53.2785C821.066 54.2557 822.328 55.0375 823.828 55.6238C825.328 56.145 827.541 56.8291 830.475 57.676C834.385 58.7183 837.574 59.7933 840.049 60.9008C842.59 61.9432 844.779 63.5068 846.598 65.5915C848.426 67.6763 849.369 70.445 849.435 73.8979C849.435 76.9599 848.59 79.6961 846.893 82.1066C845.197 84.5169 842.787 86.4062 839.664 87.7742C836.598 89.1423 832.984 89.8267 828.812 89.8267Z" fill="#F55D27"/>
<path d="M798.337 35.1021V88.9471H787.196V82.5955C785.437 84.8102 783.125 86.5692 780.258 87.8725C777.457 89.1102 774.46 89.7291 771.268 89.7291C767.033 89.7291 763.222 88.8496 759.834 87.0906C756.512 85.3315 753.874 82.7258 751.919 79.2726C750.029 75.8197 749.085 71.6502 749.085 66.7641V35.1021H760.128V65.1029C760.128 69.9238 761.333 73.6373 763.743 76.2432C766.154 78.784 769.444 80.0543 773.613 80.0543C777.783 80.0543 781.073 78.784 783.483 76.2432C785.959 73.6373 787.196 69.9238 787.196 65.1029V35.1021H798.337Z" fill="#F55D27"/>
<path d="M698.25 43.0176C700.14 40.5419 702.713 38.4573 705.97 36.7634C709.227 35.0696 712.909 34.2226 717.013 34.2226C721.704 34.2226 725.971 35.3953 729.814 37.7406C733.723 40.0208 736.786 43.2456 739 47.4151C741.215 51.5846 742.323 56.373 742.323 61.7803C742.323 67.1877 741.215 72.0412 739 76.3409C736.786 80.5756 733.723 83.898 729.814 86.3086C725.971 88.6537 721.704 89.8267 717.013 89.8267C712.909 89.8267 709.26 89.0119 706.068 87.3832C702.876 85.6898 700.27 83.6054 698.25 81.1294V114.55H687.109V35.1021H698.25V43.0176ZM730.987 61.7803C730.987 58.0668 730.205 54.8746 728.641 52.2035C727.143 49.4673 725.124 47.4151 722.583 46.047C720.107 44.6137 717.436 43.8971 714.57 43.8971C711.768 43.8971 709.097 44.6137 706.556 46.047C704.081 47.4803 702.061 49.565 700.498 52.3013C699 55.0375 698.25 58.2623 698.25 61.9758C698.25 65.6892 699 68.9466 700.498 71.748C702.061 74.4842 704.081 76.569 706.556 78.0023C709.097 79.4355 711.768 80.1522 714.57 80.1522C717.436 80.1522 720.107 79.4355 722.583 78.0023C725.124 76.5038 727.143 74.354 728.641 71.5526C730.205 68.7512 730.987 65.4937 730.987 61.7803Z" fill="#F55D27"/>
<path d="M655.353 34.2226C659.589 34.2226 663.367 35.1021 666.689 36.8611C670.077 38.6201 672.716 41.226 674.605 44.6789C676.559 48.1318 677.537 52.3013 677.537 57.1873V88.9472H666.494V58.8487C666.494 54.0277 665.288 50.3468 662.878 47.806C660.468 45.2001 657.178 43.8971 653.008 43.8971C648.839 43.8971 645.516 45.2001 643.041 47.806C640.63 50.3468 639.425 54.0277 639.425 58.8487V88.9472H628.382V58.8487C628.382 54.0277 627.177 50.3468 624.766 47.806C622.356 45.2001 619.066 43.8971 614.897 43.8971C610.727 43.8971 607.404 45.2001 604.929 47.806C602.518 50.3468 601.313 54.0277 601.313 58.8487V88.9472H590.173V35.1021H601.313V41.2586C603.137 39.0436 605.45 37.3171 608.252 36.0793C611.052 34.8415 614.049 34.2226 617.242 34.2226C621.542 34.2226 625.385 35.1346 628.773 36.9588C632.161 38.783 634.766 41.4214 636.591 44.8743C638.22 41.6169 640.761 39.0436 644.213 37.1542C647.666 35.1998 651.379 34.2226 655.353 34.2226Z" fill="#F55D27"/>
<path d="M524.832 61.7803C524.832 56.373 525.939 51.5846 528.154 47.4151C530.434 43.2456 533.497 40.0208 537.34 37.7406C541.249 35.3953 545.549 34.2226 550.239 34.2226C554.475 34.2226 558.155 35.0696 561.282 36.7634C564.475 38.3921 567.016 40.4442 568.905 42.9199V35.1021H580.143V88.9472H568.905V80.9339C567.016 83.475 564.442 85.5923 561.184 87.2857C557.927 88.98 554.214 89.8267 550.044 89.8267C545.419 89.8267 541.184 88.6537 537.34 86.3087C533.497 83.898 530.434 80.5756 528.154 76.341C525.939 72.0412 524.832 67.1877 524.832 61.7803ZM568.905 61.9758C568.905 58.2623 568.123 55.0375 566.559 52.3013C565.061 49.5651 563.074 47.4803 560.598 46.047C558.123 44.6137 555.452 43.8971 552.585 43.8971C549.719 43.8971 547.048 44.6137 544.572 46.047C542.096 47.4151 540.076 49.4673 538.513 52.2035C537.015 54.8746 536.266 58.0669 536.266 61.7803C536.266 65.4937 537.015 68.7512 538.513 71.5526C540.076 74.354 542.096 76.5038 544.572 78.0023C547.112 79.4355 549.784 80.1522 552.585 80.1522C555.452 80.1522 558.123 79.4355 560.598 78.0023C563.074 76.569 565.061 74.4842 566.559 71.748C568.123 68.9466 568.905 65.6892 568.905 61.9758Z" fill="#F55D27"/>
<path d="M466.662 61.9758C466.662 56.4382 467.77 51.5846 469.985 47.4151C472.265 43.1805 475.392 39.9231 479.366 37.6428C483.34 35.3627 487.901 34.2226 493.047 34.2226C499.562 34.2226 504.937 35.7861 509.171 38.9132C513.471 41.9752 516.37 46.3728 517.869 52.1058H505.849C504.872 49.4347 503.308 47.35 501.158 45.8515C499.008 44.3532 496.305 43.604 493.047 43.604C488.487 43.604 484.838 45.2327 482.102 48.4901C479.431 51.6823 478.096 56.1776 478.096 61.9758C478.096 67.774 479.431 72.3018 482.102 75.5592C484.838 78.8166 488.487 80.4453 493.047 80.4453C499.497 80.4453 503.764 77.6114 505.849 71.9435H517.869C516.306 77.416 513.374 81.7809 509.074 85.0382C504.774 88.2308 499.432 89.8267 493.047 89.8267C487.901 89.8267 483.34 88.6865 479.366 86.4062C475.392 84.0611 472.265 80.8037 469.985 76.6342C467.77 72.3995 466.662 67.5134 466.662 61.9758Z" fill="#F55D27"/>
</g>
<defs>
<linearGradient id="paint0_linear_54_13438" x1="73.6772" y1="94.302" x2="37.619" y2="52.7064" gradientUnits="userSpaceOnUse">
<stop stop-color="white"/>
<stop offset="1" stop-color="#265DF5"/>
</linearGradient>
<clipPath id="clip0_54_13438">
<rect width="850" height="122.951" fill="white" transform="translate(0 0.616211)"/>
</clipPath>
</defs>
</svg>
